<svg width="85.000000" height="84.000000" viewBox="0 0 85 84" fill="none" xmlns="http://www.w3.org/2000/svg" xmlns:xlink="http://www.w3.org/1999/xlink">
	<desc>
			Created with Pixso.
	</desc>
	<defs>
		<clipPath id="clip86_12">
			<rect id="1_icon" width="85.000000" height="84.000000" fill="white" fill-opacity="0"/>
		</clipPath>
	</defs>
	<rect id="1_icon" width="85.000000" height="84.000000" fill="#FFFFFF" fill-opacity="0"/>
	<g clip-path="url(#clip86_12)">
		<path id="Vector" d="M24.44 46.2L24.26 46.2L24.26 47.6C24.25 47.12 24.31 46.65 24.44 46.2Z" fill="#BDDBFF" fill-opacity="1.000000" fill-rule="nonzero"/>
		<g opacity="0.800000">
			<path id="Vector" d="M24.26 60.2L24.26 40.59L15.76 40.59L15.76 63L24.26 63L24.26 60.2Z" fill="#27ACE2" fill-opacity="1.000000" fill-rule="nonzero"/>
		</g>
		<g opacity="0.800000">
			<path id="Vector" d="M56.84 29.4C56.84 35.58 51.76 40.59 45.51 40.59C39.25 40.59 34.17 35.58 34.17 29.4C34.17 23.21 39.25 18.2 45.51 18.2C51.76 18.2 56.84 23.21 56.84 29.4Z" fill="#27ACE2" fill-opacity="1.000000" fill-rule="nonzero"/>
		</g>
		<g opacity="0.800000">
			<path id="Vector" d="M25.67 1.4L59.67 1.4C62.8 1.4 65.34 3.9 65.34 7L65.34 12.6L20.01 12.6L20.01 7C20.01 3.9 22.54 1.4 25.67 1.4Z" fill="#27ACE2" fill-opacity="1.000000" fill-rule="nonzero"/>
		</g>
		<g opacity="0.800000">
			<path id="Vector" d="M20.01 68.6L65.34 68.6L65.34 77C65.34 80.09 62.8 82.6 59.67 82.6L25.67 82.6C22.54 82.6 20.01 80.09 20.01 77L20.01 68.6Z" fill="#27ACE2" fill-opacity="1.000000" fill-rule="nonzero"/>
		</g>
		<path id="Vector" d="M21.42 14L58.26 14L58.26 11.2L21.42 11.2L21.42 7C21.42 4.68 23.33 2.79 25.67 2.79L59.67 2.79C62.02 2.79 63.92 4.68 63.92 7L63.92 19.6L66.76 19.6L66.76 7C66.75 3.13 63.58 0 59.67 0L25.67 0C21.76 0 18.59 3.13 18.59 7L18.59 25.2L21.42 25.2L21.42 14Z" fill="#0060AA" fill-opacity="1.000000" fill-rule="nonzero"/>
		<path id="Vector" d="M63.92 67.19L27.09 67.19L27.09 70L63.92 70L63.92 77C63.92 79.31 62.02 81.19 59.67 81.19L25.67 81.19C23.33 81.19 21.42 79.31 21.42 77L21.42 67.19L18.59 67.19L18.59 77C18.59 80.86 21.76 83.99 25.67 84L59.67 84C63.58 83.99 66.75 80.86 66.76 77L66.76 61.6L63.92 61.6L63.92 67.19Z" fill="#0060AA" fill-opacity="1.000000" fill-rule="nonzero"/>
		<path id="Vector" d="M41.26 74.19L44.09 74.19L44.09 76.99L41.26 76.99L41.26 74.19Z" fill="#0060AA" fill-opacity="1.000000" fill-rule="nonzero"/>
		<path id="Vector" d="M31.34 5.59L34.17 5.59L34.17 8.39L31.34 8.39L31.34 5.59Z" fill="#0060AA" fill-opacity="1.000000" fill-rule="nonzero"/>
		<path id="Vector" d="M37.01 5.59L39.84 5.59L39.84 8.39L37.01 8.39L37.01 5.59Z" fill="#0060AA" fill-opacity="1.000000" fill-rule="nonzero"/>
		<path id="Vector" d="M24.26 18.2L24.26 23.8L27.09 23.8L27.09 19.6L31.34 19.6L31.34 16.79L25.67 16.79C24.89 16.79 24.26 17.42 24.26 18.2Z" fill="#0060AA" fill-opacity="1.000000" fill-rule="nonzero"/>
		<path id="Vector" d="M18.59 44.8L21.42 44.8L21.42 47.6L18.59 47.6L18.59 44.8Z" fill="#0060AA" fill-opacity="1.000000" fill-rule="nonzero"/>
		<path id="Vector" d="M70.21 38.58C67.44 35.85 62.96 35.85 60.19 38.58L52.71 45.98C51.91 45.23 50.85 44.8 49.76 44.8L42.08 44.8C40.96 42.24 38.41 40.59 35.59 40.6L29.92 40.6C28.39 40.6 26.9 41.09 25.67 42L25.67 40.6C25.67 39.82 25.04 39.2 24.26 39.2L15.76 39.2C14.97 39.2 14.34 39.82 14.34 40.6L14.34 63C14.34 63.77 14.97 64.4 15.76 64.4L24.26 64.4C25.04 64.4 25.67 63.77 25.67 63L25.67 61.6L48.34 61.6C48.71 61.6 49.07 61.45 49.34 61.18L70.21 40.56C70.76 40.02 70.76 39.13 70.21 38.58ZM22.84 61.6L17.17 61.6L17.17 42L22.84 42L22.84 61.6ZM47.75 58.8L25.67 58.8L25.67 47.6C25.67 47.26 25.71 46.92 25.8 46.59C25.8 46.57 25.8 46.56 25.81 46.54C26.29 44.69 27.99 43.39 29.92 43.4L35.59 43.4C37.53 43.39 39.22 44.69 39.7 46.54C39.86 47.16 40.42 47.6 41.07 47.6L49.76 47.6C50.07 47.6 50.38 47.71 50.63 47.9C50.86 48.07 51.02 48.32 51.1 48.59C51.1 48.61 51.12 48.62 51.12 48.64C51.16 48.75 51.17 48.87 51.17 49C51.17 49.37 51.02 49.73 50.74 49.99C50.48 50.25 50.12 50.4 49.76 50.4L34.17 50.4L34.17 53.2L49.76 53.2C52.1 53.18 53.99 51.31 54.01 49C54.01 48.89 53.99 48.78 53.98 48.68L62.2 40.56C63.49 39.33 65.41 39 67.04 39.74L47.75 58.8Z" fill="#0060AA" fill-opacity="1.000000" fill-rule="nonzero"/>
		<path id="Vector" d="M44.09 21L44.09 22.65C42.14 23.33 40.97 25.3 41.32 27.31C41.67 29.33 43.44 30.8 45.51 30.8C46.29 30.8 46.92 31.42 46.92 32.2C46.92 32.97 46.29 33.59 45.51 33.59C44.72 33.59 44.09 32.97 44.09 32.2L41.26 32.2C41.26 33.97 42.4 35.55 44.09 36.14L44.09 37.8L46.92 37.8L46.92 36.14C48.87 35.46 50.04 33.49 49.69 31.48C49.34 29.46 47.57 27.99 45.51 28C44.72 28 44.09 27.37 44.09 26.6C44.09 25.82 44.72 25.2 45.51 25.2C46.29 25.2 46.92 25.82 46.92 26.6L49.76 26.6C49.75 24.82 48.61 23.24 46.92 22.65L46.92 21L44.09 21Z" fill="#0060AA" fill-opacity="1.000000" fill-rule="nonzero"/>
		<path id="Vector" d="M32.76 29.4C32.76 36.35 38.46 42 45.51 42C52.55 42 58.26 36.35 58.26 29.4C58.26 22.44 52.55 16.79 45.51 16.79C38.47 16.8 32.76 22.44 32.76 29.4ZM55.42 29.4C55.42 34.81 50.98 39.2 45.51 39.2C40.03 39.2 35.59 34.81 35.59 29.4C35.59 23.98 40.03 19.6 45.51 19.6C50.98 19.6 55.42 23.99 55.42 29.4Z" fill="#0060AA" fill-opacity="1.000000" fill-rule="nonzero"/>
	</g>
</svg>
