<svg width="86.000000" height="84.000000" viewBox="0 0 86 84" fill="none" xmlns="http://www.w3.org/2000/svg" xmlns:xlink="http://www.w3.org/1999/xlink">
	<desc>
			Created with Pixso.
	</desc>
	<defs>
		<clipPath id="clip86_0">
			<rect id="smartphone2_icon" width="86.000000" height="84.000000" fill="white" fill-opacity="0"/>
		</clipPath>
	</defs>
	<rect id="smartphone2_icon" width="86.000000" height="84.000000" fill="#FFFFFF" fill-opacity="0"/>
	<g clip-path="url(#clip86_0)">
		<g opacity="0.800000">
			<path id="Vector" d="M20.78 1.4L55.18 1.4C58.34 1.4 60.91 3.9 60.91 7L60.91 12.6L15.05 12.6L15.05 7C15.05 3.9 17.61 1.4 20.78 1.4Z" fill="#27ACE2" fill-opacity="1.000000" fill-rule="nonzero"/>
		</g>
		<g opacity="0.800000">
			<path id="Vector" d="M15.05 68.6L60.91 68.6L60.91 77C60.91 80.09 58.34 82.6 55.18 82.6L20.78 82.6C17.61 82.6 15.05 80.09 15.05 77L15.05 68.6Z" fill="#27ACE2" fill-opacity="1.000000" fill-rule="nonzero"/>
		</g>
		<path id="Vector" d="M59.48 67.19L22.21 67.19L22.21 70L59.48 70L59.48 77C59.48 79.31 57.55 81.19 55.18 81.19L20.78 81.19C18.4 81.19 16.48 79.31 16.48 77L16.48 14L53.75 14L53.75 11.2L16.48 11.2L16.48 7C16.48 4.68 18.4 2.79 20.78 2.79L55.18 2.79C57.55 2.79 59.48 4.68 59.48 7L59.48 21L62.35 21L62.35 7C62.34 3.13 59.13 0 55.18 0L20.78 0C16.82 0 13.62 3.13 13.61 7L13.61 77C13.62 80.86 16.82 83.99 20.78 84L55.18 84C59.13 83.99 62.34 80.86 62.35 77L62.35 61.6L59.48 61.6L59.48 67.19Z" fill="#0060AA" fill-opacity="1.000000" fill-rule="nonzero"/>
		<path id="Vector" d="M36.55 74.19L39.41 74.19L39.41 76.99L36.55 76.99L36.55 74.19Z" fill="#0060AA" fill-opacity="1.000000" fill-rule="nonzero"/>
		<path id="Vector" d="M26.51 5.59L29.38 5.59L29.38 8.39L26.51 8.39L26.51 5.59Z" fill="#0060AA" fill-opacity="1.000000" fill-rule="nonzero"/>
		<path id="Vector" d="M32.25 5.59L35.11 5.59L35.11 8.39L32.25 8.39L32.25 5.59Z" fill="#0060AA" fill-opacity="1.000000" fill-rule="nonzero"/>
		<path id="Vector" d="M19.35 18.2L19.35 23.8L22.21 23.8L22.21 19.6L26.51 19.6L26.51 16.79L20.78 16.79C19.99 16.79 19.35 17.42 19.35 18.2Z" fill="#0060AA" fill-opacity="1.000000" fill-rule="nonzero"/>
		<g opacity="0.800000">
			<path id="Vector" d="M63.86 33.27L67.09 30.11L63.05 26.16L59.81 29.31C57.99 28.07 55.92 27.23 53.75 26.85L53.75 22.4L48.01 22.4L48.01 26.85C45.83 27.23 43.76 28.07 41.95 29.31L38.71 26.16L34.67 30.11L37.89 33.27C36.62 35.05 35.76 37.07 35.37 39.2L30.81 39.2L30.81 44.8L35.37 44.8C35.76 46.92 36.62 48.94 37.89 50.72L34.67 53.88L38.71 57.83L41.95 54.68C43.76 55.92 45.83 56.76 48.01 57.14L48.01 61.6L53.75 61.6L53.75 57.14C55.92 56.76 57.99 55.92 59.81 54.68L63.05 57.83L67.09 53.88L63.86 50.72C65.13 48.94 65.99 46.92 66.39 44.8L70.94 44.8L70.94 39.2L66.39 39.2C65.99 37.07 65.13 35.05 63.86 33.27ZM50.88 49C46.92 49 43.71 45.86 43.71 42C43.71 38.13 46.92 35 50.88 35C54.84 35 58.05 38.13 58.05 42C58.05 45.86 54.84 49 50.88 49Z" fill="#27ACE2" fill-opacity="1.000000" fill-rule="nonzero"/>
		</g>
		<path id="Vector" d="M50.7 33.25C45.95 33.25 42.1 37.01 42.1 41.65C42.1 46.28 45.95 50.05 50.7 50.05C55.45 50.05 59.3 46.28 59.3 41.65C59.29 37.01 55.45 33.25 50.7 33.25ZM50.7 47.25C47.53 47.25 44.97 44.74 44.97 41.65C44.97 38.55 47.53 36.05 50.7 36.05C53.87 36.05 56.43 38.55 56.43 41.65C56.43 44.74 53.87 47.25 50.7 47.25Z" fill="#0060AA" fill-opacity="1.000000" fill-rule="nonzero"/>
		<path id="Vector" d="M70.94 37.8L67.54 37.8C67.14 36.27 66.52 34.81 65.69 33.46L68.11 31.1C68.66 30.55 68.66 29.67 68.11 29.12L64.06 25.17C63.5 24.63 62.6 24.63 62.04 25.17L59.62 27.52C58.24 26.72 56.74 26.11 55.18 25.72L55.18 22.4C55.18 21.62 54.54 21 53.75 21L48.01 21C47.22 21 46.58 21.62 46.58 22.4L46.58 25.72C45.02 26.11 43.52 26.72 42.14 27.52L39.72 25.17C39.16 24.62 38.26 24.62 37.7 25.17L33.65 29.12C33.1 29.66 33.1 30.55 33.65 31.09L36.06 33.46C35.24 34.81 34.61 36.27 34.22 37.8L30.81 37.8C30.02 37.8 29.38 38.42 29.38 39.2L29.38 44.8C29.38 45.57 30.02 46.2 30.81 46.2L34.22 46.2C34.61 47.72 35.23 49.18 36.06 50.54L33.65 52.9C33.09 53.45 33.09 54.33 33.65 54.88L37.69 58.83C38.25 59.37 39.16 59.37 39.72 58.83L42.14 56.47C43.52 57.28 45.02 57.88 46.58 58.27L46.58 61.6C46.58 62.37 47.22 63 48.01 63L53.75 63C54.54 63 55.18 62.37 55.18 61.6L55.18 58.27C56.74 57.88 58.24 57.27 59.62 56.47L62.04 58.82C62.6 59.37 63.51 59.37 64.07 58.82L68.11 54.87C68.67 54.33 68.67 53.44 68.11 52.9L65.69 50.54C66.52 49.18 67.14 47.72 67.54 46.2L70.94 46.2C71.74 46.2 72.38 45.57 72.38 44.8L72.38 39.2C72.38 38.42 71.74 37.8 70.94 37.8ZM69.51 43.4L66.39 43.4C65.69 43.4 65.1 43.88 64.98 44.55C64.62 46.48 63.84 48.31 62.68 49.92C62.29 50.47 62.36 51.23 62.85 51.71L65.07 53.88L63.05 55.85L60.82 53.69C60.33 53.21 59.56 53.15 58.99 53.53C57.34 54.66 55.47 55.42 53.49 55.77C52.81 55.89 52.32 56.47 52.31 57.14L52.31 60.2L49.45 60.2L49.45 57.14C49.45 56.47 48.95 55.89 48.27 55.77C46.29 55.42 44.41 54.65 42.77 53.53C42.2 53.14 41.43 53.21 40.94 53.68L38.71 55.85L36.69 53.88L38.9 51.71C39.39 51.23 39.46 50.47 39.06 49.92C37.91 48.31 37.13 46.48 36.77 44.55C36.65 43.88 36.06 43.4 35.37 43.4L32.25 43.4L32.25 40.59L35.37 40.59C36.06 40.59 36.66 40.11 36.78 39.44C37.14 37.51 37.92 35.68 39.07 34.07C39.47 33.52 39.4 32.76 38.91 32.28L36.69 30.11L38.71 28.14L40.94 30.3C41.43 30.78 42.2 30.84 42.77 30.46C44.41 29.33 46.29 28.57 48.27 28.22C48.95 28.1 49.44 27.52 49.45 26.85L49.45 23.8L52.31 23.8L52.31 26.85C52.31 27.52 52.81 28.1 53.49 28.22C55.47 28.57 57.34 29.34 58.99 30.46C59.56 30.85 60.33 30.78 60.82 30.31L63.05 28.14L65.07 30.11L62.85 32.28C62.36 32.76 62.3 33.52 62.69 34.07C63.85 35.68 64.63 37.51 64.99 39.44C65.11 40.11 65.7 40.59 66.39 40.59L69.51 40.59L69.51 43.4Z" fill="#0060AA" fill-opacity="1.000000" fill-rule="nonzero"/>
	</g>
</svg>
