<svg width="44.000000" height="47.000000" viewBox="0 0 44 47" fill="none" xmlns="http://www.w3.org/2000/svg" xmlns:xlink="http://www.w3.org/1999/xlink">
	<desc>
			Created with Pixso.
	</desc>
	<defs>
		<clipPath id="clip95_18">
			<rect id="Frame" width="43.200001" height="46.700001" fill="white" fill-opacity="0"/>
		</clipPath>
	</defs>
	<rect id="Frame" width="43.200001" height="46.700001" fill="#FFFFFF" fill-opacity="0"/>
	<g clip-path="url(#clip95_18)">
		<path id="Vector" d="M17.1 25.2C16.1 23.9 16.29 22.1 17.5 21.1C18.79 20.1 20.6 20.29 21.6 21.5C22.6 22.8 22.39 24.6 21.2 25.6C20.7 26 20 26.2 19.39 26.2C18.6 26.3 17.7 25.9 17.1 25.2ZM11.6 18.4C10.6 17.1 10.8 15.3 12 14.3C13.3 13.3 15.1 13.5 16.1 14.7C17.1 16 16.89 17.79 15.7 18.79C15.2 19.2 14.5 19.4 13.89 19.4C13.1 19.4 12.2 19.1 11.6 18.4ZM6.1 11.6C5.1 10.3 5.3 8.5 6.5 7.5C7.8 6.5 9.6 6.69 10.6 7.9C11.6 9.19 11.39 11 10.2 12C9.69 12.4 9 12.7 8.39 12.7C7.6 12.6 6.69 12.3 6.1 11.6ZM0.6 4.69C-0.4 3.5 -0.2 1.59 1 0.59C2.3 -0.41 4.1 -0.2 5.1 1C6.1 2.3 5.89 4.09 4.69 5.09C4.19 5.59 3.6 5.8 2.89 5.8C2.1 5.8 1.19 5.5 0.6 4.69Z" fill="#27ACE2" fill-opacity="1.000000" fill-rule="nonzero"/>
		<path id="Vector" d="M17.1 25.2C16.1 23.9 16.29 22.1 17.5 21.1C18.79 20.1 20.6 20.29 21.6 21.5C22.6 22.8 22.39 24.6 21.2 25.6C20.7 26 20 26.2 19.39 26.2C18.6 26.3 17.7 25.9 17.1 25.2ZM11.6 18.4C10.6 17.1 10.8 15.3 12 14.3C13.3 13.3 15.1 13.5 16.1 14.7C17.1 16 16.89 17.79 15.7 18.79C15.2 19.2 14.5 19.4 13.89 19.4C13.1 19.4 12.2 19.1 11.6 18.4ZM6.1 11.6C5.1 10.3 5.3 8.5 6.5 7.5C7.8 6.5 9.6 6.69 10.6 7.9C11.6 9.19 11.39 11 10.2 12C9.69 12.4 9 12.7 8.39 12.7C7.6 12.6 6.69 12.3 6.1 11.6ZM0.6 4.69C-0.4 3.5 -0.2 1.59 1 0.59C2.3 -0.41 4.1 -0.2 5.1 1C6.1 2.3 5.89 4.09 4.69 5.09C4.19 5.59 3.6 5.8 2.89 5.8C2.1 5.8 1.19 5.5 0.6 4.69Z" fill="#27ACE2" fill-opacity="1.000000" fill-rule="nonzero"/>
		<path id="Vector" d="M19.39 20.4C20 20.4 20.7 20.6 21.2 21C22.5 22 22.7 23.8 21.59 25.1C20.59 26.4 18.79 26.6 17.5 25.5C16.2 24.5 16.09 22.7 17.09 21.4C17.7 20.8 18.59 20.4 19.39 20.4ZM13.89 27.2C14.5 27.2 15.2 27.4 15.7 27.8C17 28.8 17.2 30.6 16.09 31.9C15.09 33.2 13.3 33.4 12 32.3C10.7 31.3 10.59 29.5 11.59 28.2C12.2 27.6 13.09 27.2 13.89 27.2ZM8.39 34C9 34 9.69 34.2 10.2 34.7C11.5 35.7 11.7 37.5 10.59 38.8C9.59 40.09 7.8 40.2 6.5 39.2C5.19 38.2 5.09 36.4 6.09 35.09C6.69 34.4 7.59 34 8.39 34ZM2.89 40.8C3.5 40.8 4.19 41 4.69 41.5C6 42.5 6.19 44.3 5.09 45.6C4.09 46.9 2.3 47 1 46C-0.31 45 -0.41 43.1 0.59 41.9C1.19 41.2 2.09 40.8 2.89 40.8Z" fill="#27ACE2" fill-opacity="1.000000" fill-rule="nonzero"/>
		<path id="Vector" d="M38 25.2C37 23.9 37.2 22.1 38.39 21.1C39.7 20.1 41.5 20.29 42.5 21.5C43.5 22.8 43.29 24.6 42.09 25.6C41.59 26 40.89 26.2 40.29 26.2C39.39 26.3 38.5 25.9 38 25.2ZM32.5 18.4C31.5 17.1 31.7 15.3 32.89 14.3C34.2 13.3 36 13.5 37 14.7C38 16 37.79 17.79 36.59 18.79C36.09 19.2 35.39 19.4 34.79 19.4C33.89 19.4 33 19.1 32.5 18.4ZM27 11.6C26 10.3 26.2 8.5 27.39 7.5C28.7 6.5 30.5 6.69 31.5 7.9C32.5 9.19 32.29 11 31.09 12C30.59 12.4 29.89 12.7 29.29 12.7C28.39 12.6 27.59 12.3 27 11.6ZM21.5 4.69C20.5 3.5 20.7 1.59 21.89 0.59C23.2 -0.41 25 -0.2 26 1C27 2.3 26.79 4.09 25.59 5.09C25.09 5.5 24.39 5.8 23.79 5.8C22.89 5.8 22.09 5.5 21.5 4.69Z" fill="#27ACE2" fill-opacity="1.000000" fill-rule="nonzero"/>
		<path id="Vector" d="M38 25.2C37 23.9 37.2 22.1 38.39 21.1C39.7 20.1 41.5 20.29 42.5 21.5C43.5 22.8 43.29 24.6 42.09 25.6C41.59 26 40.89 26.2 40.29 26.2C39.39 26.3 38.5 25.9 38 25.2ZM32.5 18.4C31.5 17.1 31.7 15.3 32.89 14.3C34.2 13.3 36 13.5 37 14.7C38 16 37.79 17.79 36.59 18.79C36.09 19.2 35.39 19.4 34.79 19.4C33.89 19.4 33 19.1 32.5 18.4ZM27 11.6C26 10.3 26.2 8.5 27.39 7.5C28.7 6.5 30.5 6.69 31.5 7.9C32.5 9.19 32.29 11 31.09 12C30.59 12.4 29.89 12.7 29.29 12.7C28.39 12.6 27.59 12.3 27 11.6ZM21.5 4.69C20.5 3.5 20.7 1.59 21.89 0.59C23.2 -0.41 25 -0.2 26 1C27 2.3 26.79 4.09 25.59 5.09C25.09 5.5 24.39 5.8 23.79 5.8C22.89 5.8 22.09 5.5 21.5 4.69Z" fill="#27ACE2" fill-opacity="1.000000" fill-rule="nonzero"/>
		<path id="Vector" d="M40.2 20.4C40.8 20.4 41.5 20.6 42 21C43.3 22 43.5 23.8 42.39 25.1C41.39 26.4 39.6 26.6 38.3 25.5C37 24.5 36.89 22.7 37.89 21.4C38.5 20.8 39.39 20.4 40.2 20.4ZM34.7 27.2C35.3 27.2 36 27.4 36.5 27.8C37.8 28.8 38 30.6 36.89 31.9C35.89 33.2 34.1 33.4 32.8 32.3C31.5 31.3 31.39 29.5 32.39 28.2C33 27.6 33.89 27.2 34.7 27.2ZM29.2 34C29.8 34 30.5 34.2 31 34.7C32.3 35.7 32.5 37.5 31.39 38.8C30.39 40.09 28.6 40.2 27.3 39.2C26 38.2 25.89 36.4 26.89 35.09C27.6 34.4 28.39 34 29.2 34ZM23.7 40.8C24.3 40.8 25 41 25.5 41.5C26.8 42.5 27 44.3 25.89 45.6C24.89 46.9 23.1 47 21.8 46C20.5 45 20.39 43.1 21.39 41.9C22.1 41.2 22.89 40.8 23.7 40.8Z" fill="#27ACE2" fill-opacity="1.000000" fill-rule="nonzero"/>
	</g>
</svg>
